<svg width="384" height="161" viewBox="0 0 384 161" fill="none" xmlns="http://www.w3.org/2000/svg">
<path d="M15.2 60.24L7.96 39.28H0.04L10.6 68H19.76L30.32 39.28H22.4L15.2 60.24ZM50.7772 57.44C50.7372 50 46.1772 46.92 40.1372 46.92C33.4172 46.92 28.8572 50.84 28.8572 57.68C28.8572 64.48 33.2572 68.4 40.3772 68.4C45.3372 68.4 49.2572 65.96 50.5372 61.52L43.9772 60.68C43.3772 62.2 42.0972 62.88 40.3372 62.88C38.0572 62.88 36.2172 61.64 35.8972 59.08H50.6972L50.7772 57.44ZM40.1772 52.12C41.9772 52.12 43.3772 53.08 43.7772 54.8H36.0972C36.6572 52.92 38.0172 52.12 40.1772 52.12ZM68.6284 49.36C67.5484 47.92 65.4684 46.92 62.8284 46.92C57.6684 46.92 53.3484 50.72 53.3484 57C53.3484 63.28 57.6684 67.2 62.7484 67.2C65.1884 67.2 67.3084 66.32 68.4684 65.04V67.8C68.4684 70.64 67.4284 72.56 64.1884 72.56C61.8284 72.56 60.5084 71.52 59.3484 69.12L53.4284 71.52C54.8684 75.4 58.0684 78 64.4684 78C71.2684 78 75.5884 75.08 75.5884 67.24V47.32H68.8684L68.6284 49.36ZM64.5484 61.52C62.0684 61.52 60.1884 59.6 60.1884 57C60.1884 54.4 62.0284 52.48 64.5484 52.48C67.1084 52.48 68.9084 54.4 68.9084 57C68.9084 59.6 67.0684 61.52 64.5484 61.52ZM100.894 57.44C100.854 50 96.2944 46.92 90.2544 46.92C83.5344 46.92 78.9744 50.84 78.9744 57.68C78.9744 64.48 83.3744 68.4 90.4944 68.4C95.4544 68.4 99.3744 65.96 100.654 61.52L94.0944 60.68C93.4944 62.2 92.2144 62.88 90.4544 62.88C88.1744 62.88 86.3344 61.64 86.0144 59.08H100.814L100.894 57.44ZM90.2944 52.12C92.0944 52.12 93.4944 53.08 93.8944 54.8H86.2144C86.7744 52.92 88.1344 52.12 90.2944 52.12ZM118.026 68V62.4H116.186C114.786 62.4 113.946 61.72 113.946 59.96V52.72H118.026V47.32H113.946V40.8H107.706V42.92C107.706 46.52 106.226 47.32 104.026 47.32H102.866V52.72H106.826V61.04C106.826 65.48 109.226 68 113.626 68H118.026ZM141.132 54.56C141.132 49.56 137.732 46.92 131.372 46.92C125.852 46.92 121.772 48.92 120.812 53.44L127.612 54.48C128.052 52.76 129.372 51.92 131.252 51.92C132.452 51.92 134.012 52.2 134.012 53.4C134.012 54.44 133.052 54.72 131.932 55L128.612 55.84C125.372 56.64 120.772 57.84 120.772 62.72C120.772 67.08 124.532 68.4 127.692 68.4C130.052 68.4 132.852 67.68 134.292 65.88L134.572 68H141.612V67.4C141.172 66.48 141.132 65.52 141.132 64.36V54.56ZM129.852 63.56C128.772 63.56 127.892 63.04 127.892 61.92C127.892 60.56 129.092 60.2 129.732 60L134.412 58.6C134.412 61.92 131.772 63.56 129.852 63.56ZM158.4 46.92C156 46.92 153.84 47.64 152.64 49.08V38H145.52V68H152.24L152.48 66.12C153.64 67.64 155.88 68.4 158.4 68.4C163.92 68.4 168.52 64.6 168.52 57.72C168.52 50.84 163.92 46.92 158.4 46.92ZM156.84 62.56C154.28 62.56 152.32 60.88 152.32 57.72C152.32 54.56 154.28 52.76 156.84 52.76C159.4 52.76 161.4 54.56 161.4 57.72C161.4 60.88 159.4 62.56 156.84 62.56ZM179.046 68V38H171.926V68H179.046ZM204.371 57.44C204.331 50 199.771 46.92 193.731 46.92C187.011 46.92 182.451 50.84 182.451 57.68C182.451 64.48 186.851 68.4 193.971 68.4C198.931 68.4 202.851 65.96 204.131 61.52L197.571 60.68C196.971 62.2 195.691 62.88 193.931 62.88C191.651 62.88 189.811 61.64 189.491 59.08H204.291L204.371 57.44ZM193.771 52.12C195.571 52.12 196.971 53.08 197.371 54.8H189.691C190.251 52.92 191.611 52.12 193.771 52.12ZM4.68 94.68V102.72L11.08 97.56V118H18.2V89.28H11.36L4.68 94.68ZM37.2047 118.6C44.1647 118.6 48.1247 113.84 48.1247 103.64C48.1247 93.4 44.1247 88.68 37.2047 88.68C30.2447 88.68 26.2447 93.4 26.2447 103.64C26.2447 113.84 30.2047 118.6 37.2047 118.6ZM37.2047 112.24C34.8847 112.24 33.3647 109.84 33.3647 103.64C33.3647 97.44 34.8847 95.04 37.2047 95.04C39.4847 95.04 41.0047 97.44 41.0047 103.64C41.0047 109.84 39.4847 112.24 37.2047 112.24ZM62.0094 118.6C68.9694 118.6 72.9294 113.84 72.9294 103.64C72.9294 93.4 68.9294 88.68 62.0094 88.68C55.0494 88.68 51.0494 93.4 51.0494 103.64C51.0494 113.84 55.0094 118.6 62.0094 118.6ZM62.0094 112.24C59.6894 112.24 58.1694 109.84 58.1694 103.64C58.1694 97.44 59.6894 95.04 62.0094 95.04C64.2894 95.04 65.8094 97.44 65.8094 103.64C65.8094 109.84 64.2894 112.24 62.0094 112.24ZM83.4941 103.28C87.4941 103.28 90.6941 100.04 90.6941 96.08C90.6941 92.12 87.4941 88.88 83.4941 88.88C79.5341 88.88 76.2941 92.12 76.2941 96.08C76.2941 100.08 79.4941 103.28 83.4941 103.28ZM88.2141 118L103.094 89.28H97.2941L82.4541 118H88.2141ZM83.4941 98.68C82.0541 98.68 80.8941 97.56 80.8941 96.08C80.8941 94.6 82.0541 93.48 83.4941 93.48C84.8941 93.48 86.0941 94.64 86.0941 96.08C86.0941 97.56 85.0141 98.68 83.4941 98.68ZM102.214 118.32C106.174 118.32 109.374 115.08 109.374 111.12C109.374 107.12 106.174 103.92 102.214 103.92C98.2141 103.92 94.9741 107.12 94.9741 111.12C94.9741 115.12 98.1741 118.32 102.214 118.32ZM102.214 113.68C100.734 113.68 99.5741 112.56 99.5741 111.12C99.5741 109.64 100.734 108.52 102.214 108.52C103.614 108.52 104.814 109.72 104.814 111.12C104.814 112.56 103.654 113.68 102.214 113.68ZM137.721 118.6C146.401 118.6 152.641 112.52 152.641 103.64C152.641 94.76 146.401 88.68 137.721 88.68C129.041 88.68 122.801 94.76 122.801 103.64C122.801 112.52 129.041 118.6 137.721 118.6ZM137.721 111.8C133.401 111.8 130.241 108.56 130.241 103.64C130.241 98.72 133.401 95.48 137.721 95.48C142.041 95.48 145.201 98.72 145.201 103.64C145.201 108.56 142.041 111.8 137.721 111.8ZM163.069 97.32H155.949V118H163.069V108.72C163.069 104.52 164.949 103.52 169.549 103.52V96.92C166.669 96.92 164.309 98.12 163.069 99.8V97.32ZM186.714 99.36C185.634 97.92 183.554 96.92 180.914 96.92C175.754 96.92 171.434 100.72 171.434 107C171.434 113.28 175.754 117.2 180.834 117.2C183.274 117.2 185.394 116.32 186.554 115.04V117.8C186.554 120.64 185.514 122.56 182.274 122.56C179.914 122.56 178.594 121.52 177.434 119.12L171.514 121.52C172.954 125.4 176.154 128 182.554 128C189.354 128 193.674 125.08 193.674 117.24V97.32H186.954L186.714 99.36ZM182.634 111.52C180.154 111.52 178.274 109.6 178.274 107C178.274 104.4 180.114 102.48 182.634 102.48C185.194 102.48 186.994 104.4 186.994 107C186.994 109.6 185.154 111.52 182.634 111.52ZM217.46 104.56C217.46 99.56 214.06 96.92 207.7 96.92C202.18 96.92 198.1 98.92 197.14 103.44L203.94 104.48C204.38 102.76 205.7 101.92 207.58 101.92C208.78 101.92 210.34 102.2 210.34 103.4C210.34 104.44 209.38 104.72 208.26 105L204.94 105.84C201.7 106.64 197.1 107.84 197.1 112.72C197.1 117.08 200.86 118.4 204.02 118.4C206.38 118.4 209.18 117.68 210.62 115.88L210.9 118H217.94V117.4C217.5 116.48 217.46 115.52 217.46 114.36V104.56ZM206.18 113.56C205.1 113.56 204.22 113.04 204.22 111.92C204.22 110.56 205.42 110.2 206.06 110L210.74 108.6C210.74 111.92 208.1 113.56 206.18 113.56ZM235.488 96.92C232.648 96.92 230.328 97.88 228.808 99.52L228.528 97.32H221.808V118H228.928V106.44C229.248 103.32 231.208 102.52 233.168 102.52C234.888 102.52 236.408 103.32 236.408 105.6V118H243.528V104.08C243.528 99.56 240.888 96.92 235.488 96.92ZM251.267 95.32C253.347 95.32 255.107 93.6 255.107 91.44C255.107 89.32 253.347 87.6 251.267 87.6C249.107 87.6 247.347 89.32 247.347 91.44C247.347 93.6 249.107 95.32 251.267 95.32ZM254.787 118V97.32H247.667V118H254.787ZM269.674 118.4C275.154 118.4 279.394 115.52 280.234 110.28L273.674 109.68C273.234 111.92 271.794 112.88 269.594 112.88C266.874 112.88 265.234 110.72 265.234 107.64C265.234 104.56 266.874 102.44 269.594 102.44C271.794 102.44 273.234 103.36 273.674 105.6L280.234 105C279.394 99.76 275.314 96.92 269.674 96.92C262.794 96.92 258.114 101.24 258.114 107.64C258.114 114.04 262.794 118.4 269.674 118.4Z" fill="#2A2A2A"/>
<path d="M7.584 145.816H1.168V157H2.992V152.2H6.992V150.616H2.992V147.416H7.584V145.816ZM10.4406 149.096H8.69662V157H10.4406V153.32C10.4406 151.32 11.3526 150.552 13.3046 150.552V148.936C11.9606 148.936 10.9206 149.512 10.4406 150.408V149.096ZM22.0325 153C22.0325 150.344 20.3525 148.936 18.0965 148.936C15.6965 148.936 14.0165 150.52 14.0165 153.048C14.0165 155.56 15.6485 157.16 18.1445 157.16C19.8885 157.16 21.2805 156.264 21.8085 154.728L20.2085 154.488C19.8405 155.32 19.1045 155.784 18.1445 155.784C16.8325 155.784 15.8245 154.904 15.7285 153.4H22.0165L22.0325 153ZM18.1125 150.312C19.2325 150.312 20.0965 150.92 20.2725 152.072H15.8085C16.0485 150.872 16.8965 150.312 18.1125 150.312ZM31.4544 153C31.4544 150.344 29.7744 148.936 27.5184 148.936C25.1184 148.936 23.4384 150.52 23.4384 153.048C23.4384 155.56 25.0704 157.16 27.5664 157.16C29.3104 157.16 30.7024 156.264 31.2304 154.728L29.6304 154.488C29.2624 155.32 28.5264 155.784 27.5664 155.784C26.2544 155.784 25.2464 154.904 25.1504 153.4H31.4384L31.4544 153ZM27.5344 150.312C28.6544 150.312 29.5184 150.92 29.6944 152.072H25.2304C25.4704 150.872 26.3184 150.312 27.5344 150.312ZM44.1845 146.616C43.4965 146.072 42.5685 145.816 41.0485 145.816H37.4805V157H39.2885V152.936H41.0485C41.8805 152.936 42.8565 152.888 43.6405 152.472C44.7445 151.864 45.2725 150.68 45.2725 149.272C45.2725 148.072 44.8725 147.176 44.1845 146.616ZM42.6645 151.064C42.2325 151.352 41.4965 151.4 40.8085 151.4H39.2885V147.336H40.8085C41.5765 147.336 42.2965 147.416 42.7765 147.752C43.2085 148.072 43.4645 148.616 43.4645 149.368C43.4645 150.184 43.1925 150.744 42.6645 151.064ZM47.7169 147.528C48.3089 147.528 48.8049 147.032 48.8049 146.44C48.8049 145.848 48.3089 145.368 47.7169 145.368C47.1249 145.368 46.6289 145.848 46.6289 146.44C46.6289 147.032 47.1249 147.528 47.7169 147.528ZM48.5969 157V149.096H46.8529V157H48.5969ZM54.4726 157.16C56.3766 157.16 57.8486 156.12 58.2646 154.344L56.6486 154.168C56.3446 155.208 55.5606 155.784 54.4566 155.784C53.0326 155.784 52.0726 154.648 52.0726 153.032C52.0726 151.448 53.0326 150.312 54.4566 150.312C55.5606 150.312 56.3446 150.872 56.6486 151.912L58.2646 151.736C57.8486 149.96 56.4086 148.936 54.4726 148.936C52.0406 148.936 50.3286 150.616 50.3286 153.032C50.3286 155.464 52.0406 157.16 54.4726 157.16ZM67.1623 149.096H65.1623L62.2183 152.296H61.7063V145H59.9622V157H61.7063V153.512H62.2343L65.3063 157H67.4183L63.6903 152.808L67.1623 149.096ZM74.073 153.512C74.057 155.08 73.177 155.752 72.073 155.752C71.049 155.752 70.345 155.192 70.345 154.008V149.096H68.601V154.344C68.601 156.12 69.625 157.16 71.561 157.16C72.649 157.16 73.529 156.728 74.073 156.008V157H75.817V149.096H74.073V153.512ZM82.3946 148.936C81.1946 148.936 80.1866 149.432 79.6906 150.296V149.096H77.9466V160.888H79.6906V155.768C80.1866 156.648 81.1946 157.16 82.3946 157.16C84.5386 157.16 86.2186 155.56 86.2186 153.032C86.2186 150.504 84.5386 148.936 82.3946 148.936ZM82.0426 155.704C80.6506 155.704 79.6266 154.648 79.6266 153.032C79.6266 151.416 80.6506 150.392 82.0426 150.392C83.4346 150.392 84.4746 151.416 84.4746 153.032C84.4746 154.648 83.4346 155.704 82.0426 155.704ZM99.2538 155.624C98.8378 155.624 98.6778 155.416 98.6778 154.872V151.832C98.6778 149.96 97.5258 148.936 95.3978 148.936C93.3818 148.936 92.1818 149.8 91.9098 151.432L93.6538 151.672C93.7658 150.696 94.3578 150.2 95.3658 150.2C96.3098 150.2 96.9338 150.664 96.9338 151.624C96.9338 152.008 96.6138 152.136 96.2778 152.2L94.8538 152.472C93.1578 152.792 91.8138 153.416 91.8138 155.032C91.8138 156.52 92.9338 157.16 94.2618 157.16C95.6698 157.16 96.7098 156.616 97.2538 155.704H97.3338V155.88C97.3338 156.664 97.9098 157 98.7258 157H99.5417V155.624H99.2538ZM94.7418 155.8C93.9898 155.8 93.5578 155.464 93.5578 154.872C93.5578 154.248 94.0378 153.88 94.9338 153.72L97.0298 153.24C97.0298 154.808 96.0858 155.8 94.7418 155.8ZM105.031 148.936C103.959 148.936 103.079 149.352 102.535 150.072V149.096H100.791V157H102.535V152.248C102.663 150.904 103.495 150.328 104.519 150.328C105.543 150.328 106.247 150.904 106.247 152.088V157H107.991V151.752C107.991 149.976 106.967 148.936 105.031 148.936ZM116.216 150.328C115.72 149.448 114.696 148.936 113.512 148.936C111.368 148.936 109.688 150.52 109.688 153.048C109.688 155.592 111.368 157.16 113.512 157.16C114.696 157.16 115.72 156.664 116.216 155.784V157H117.96V145H116.216V150.328ZM113.864 155.704C112.456 155.704 111.432 154.68 111.432 153.048C111.432 151.448 112.456 150.392 113.864 150.392C115.256 150.392 116.28 151.448 116.28 153.048C116.28 154.68 115.256 155.704 113.864 155.704ZM127.476 157C129.38 157 130.692 156.632 131.635 155.912C132.9 154.984 133.524 153.432 133.524 151.4C133.524 149.384 132.9 147.832 131.635 146.888C130.692 146.184 129.38 145.816 127.476 145.816H124.356V157H127.476ZM126.164 147.416H127.46C128.756 147.416 129.7 147.672 130.372 148.184C131.267 148.84 131.716 149.928 131.716 151.4C131.716 152.872 131.267 153.976 130.372 154.632C129.7 155.144 128.756 155.4 127.46 155.4H126.164V147.416ZM142.97 153C142.97 150.344 141.29 148.936 139.034 148.936C136.634 148.936 134.954 150.52 134.954 153.048C134.954 155.56 136.586 157.16 139.082 157.16C140.826 157.16 142.218 156.264 142.746 154.728L141.146 154.488C140.778 155.32 140.042 155.784 139.082 155.784C137.77 155.784 136.762 154.904 136.666 153.4H142.954L142.97 153ZM139.05 150.312C140.17 150.312 141.034 150.92 141.21 152.072H136.746C136.986 150.872 137.834 150.312 139.05 150.312ZM146.472 157V145H144.728V157H146.472ZM149.451 147.528C150.043 147.528 150.539 147.032 150.539 146.44C150.539 145.848 150.043 145.368 149.451 145.368C148.859 145.368 148.363 145.848 148.363 146.44C148.363 147.032 148.859 147.528 149.451 147.528ZM150.331 157V149.096H148.587V157H150.331ZM155.823 154.952L153.567 149.096H151.679L155.039 157H156.607L159.967 149.096H158.063L155.823 154.952ZM168.626 153C168.626 150.344 166.946 148.936 164.69 148.936C162.29 148.936 160.61 150.52 160.61 153.048C160.61 155.56 162.242 157.16 164.738 157.16C166.482 157.16 167.874 156.264 168.402 154.728L166.802 154.488C166.434 155.32 165.698 155.784 164.738 155.784C163.426 155.784 162.418 154.904 162.322 153.4H168.61L168.626 153ZM164.706 150.312C165.826 150.312 166.69 150.92 166.866 152.072H162.402C162.642 150.872 163.49 150.312 164.706 150.312ZM172.128 149.096H170.384V157H172.128V153.32C172.128 151.32 173.04 150.552 174.992 150.552V148.936C173.648 148.936 172.608 149.512 172.128 150.408V149.096ZM179.791 154.936L177.551 149.096H175.663L178.895 156.696L177.071 160.888H178.975L183.951 149.096H182.047L179.791 154.936ZM199.366 157L195.126 145.816H192.854L188.614 157H190.55L191.478 154.472H196.502L197.43 157H199.366ZM193.99 147.656L195.942 152.952H192.038L193.99 147.656ZM203.073 154.952L200.817 149.096H198.929L202.289 157H203.857L207.217 149.096H205.313L203.073 154.952ZM215.504 155.624C215.088 155.624 214.928 155.416 214.928 154.872V151.832C214.928 149.96 213.776 148.936 211.648 148.936C209.632 148.936 208.432 149.8 208.16 151.432L209.904 151.672C210.016 150.696 210.608 150.2 211.616 150.2C212.56 150.2 213.184 150.664 213.184 151.624C213.184 152.008 212.864 152.136 212.528 152.2L211.104 152.472C209.408 152.792 208.064 153.416 208.064 155.032C208.064 156.52 209.184 157.16 210.512 157.16C211.92 157.16 212.96 156.616 213.504 155.704H213.584V155.88C213.584 156.664 214.16 157 214.976 157H215.792V155.624H215.504ZM210.992 155.8C210.24 155.8 209.808 155.464 209.808 154.872C209.808 154.248 210.288 153.88 211.184 153.72L213.28 153.24C213.28 154.808 212.336 155.8 210.992 155.8ZM217.889 147.528C218.481 147.528 218.977 147.032 218.977 146.44C218.977 145.848 218.481 145.368 217.889 145.368C217.297 145.368 216.801 145.848 216.801 146.44C216.801 147.032 217.297 147.528 217.889 147.528ZM218.769 157V149.096H217.025V157H218.769ZM222.613 157V145H220.868V157H222.613ZM231.832 155.624C231.416 155.624 231.256 155.416 231.256 154.872V151.832C231.256 149.96 230.104 148.936 227.976 148.936C225.96 148.936 224.76 149.8 224.488 151.432L226.232 151.672C226.344 150.696 226.936 150.2 227.944 150.2C228.888 150.2 229.512 150.664 229.512 151.624C229.512 152.008 229.192 152.136 228.856 152.2L227.432 152.472C225.736 152.792 224.392 153.416 224.392 155.032C224.392 156.52 225.512 157.16 226.84 157.16C228.248 157.16 229.288 156.616 229.832 155.704H229.912V155.88C229.912 156.664 230.488 157 231.304 157H232.12V155.624H231.832ZM227.32 155.8C226.568 155.8 226.136 155.464 226.136 154.872C226.136 154.248 226.616 153.88 227.512 153.72L229.608 153.24C229.608 154.808 228.664 155.8 227.32 155.8ZM237.817 148.936C236.633 148.936 235.609 149.448 235.113 150.328V145H233.385V157H235.113V155.784C235.609 156.664 236.633 157.16 237.817 157.16C239.961 157.16 241.641 155.592 241.641 153.048C241.641 150.52 239.961 148.936 237.817 148.936ZM237.465 155.704C236.073 155.704 235.049 154.68 235.049 153.048C235.049 151.448 236.073 150.392 237.465 150.392C238.873 150.392 239.897 151.448 239.897 153.048C239.897 154.68 238.873 155.704 237.465 155.704ZM245.144 157V145H243.4V157H245.144ZM254.923 153C254.923 150.344 253.243 148.936 250.987 148.936C248.587 148.936 246.907 150.52 246.907 153.048C246.907 155.56 248.539 157.16 251.035 157.16C252.779 157.16 254.171 156.264 254.699 154.728L253.099 154.488C252.731 155.32 251.995 155.784 251.035 155.784C249.723 155.784 248.715 154.904 248.619 153.4H254.907L254.923 153ZM251.003 150.312C252.123 150.312 252.987 150.92 253.163 152.072H248.699C248.939 150.872 249.787 150.312 251.003 150.312Z" fill="#999999"/>
<path d="M7.952 0.591999H1.024V12H3.664V7.44H7.36V5.152H3.664V2.912H7.952V0.591999ZM21.783 12L18.743 7.6C18.887 7.552 19.031 7.488 19.191 7.408C20.359 6.8 20.903 5.536 20.903 4.176C20.903 2.944 20.503 2.064 19.847 1.52C19.111 0.896 18.087 0.591999 16.423 0.591999H12.599V12H15.239V7.68H15.735L18.551 12H21.783ZM16.055 2.8C16.599 2.8 17.303 2.816 17.751 3.12C18.071 3.36 18.263 3.744 18.263 4.336C18.263 4.912 18.087 5.296 17.767 5.52C17.351 5.856 16.551 5.856 16.055 5.856H15.239V2.8H16.055ZM30.4352 12.224C33.0273 12.224 35.0433 10.912 35.0433 7.904V0.591999H32.4032V7.568C32.4032 9.248 31.5553 9.84 30.4352 9.84C29.3152 9.84 28.4672 9.248 28.4672 7.568V0.591999H25.8272V7.904C25.8272 10.912 27.8432 12.224 30.4352 12.224ZM42.8109 12V0.591999H40.1709V12H42.8109ZM47.1944 0.591999V2.912H49.8504V12H52.4904V2.912H55.1464V0.591999H47.1944ZM73.7926 0.591999H66.8646V12H69.5046V7.44H73.2006V5.152H69.5046V2.912H73.7926V0.591999ZM87.6236 12L84.5836 7.6C84.7276 7.552 84.8716 7.488 85.0316 7.408C86.1996 6.8 86.7436 5.536 86.7436 4.176C86.7436 2.944 86.3436 2.064 85.6876 1.52C84.9516 0.896 83.9276 0.591999 82.2636 0.591999H78.4396V12H81.0796V7.68H81.5756L84.3916 12H87.6236ZM81.8956 2.8C82.4396 2.8 83.1436 2.816 83.5916 3.12C83.9116 3.36 84.1036 3.744 84.1036 4.336C84.1036 4.912 83.9276 5.296 83.6076 5.52C83.1916 5.856 82.3916 5.856 81.8956 5.856H81.0796V2.8H81.8956ZM98.8299 0.591999H92.0459V12H98.8299V9.696H94.6859V7.44H98.3819V5.152H94.6859V2.912H98.8299V0.591999ZM107.634 12.224C110.242 12.224 111.97 10.832 111.97 8.688C111.97 6.144 109.762 5.488 108.018 4.992C106.882 4.672 105.922 4.4 105.922 3.648C105.922 2.944 106.578 2.528 107.522 2.528C108.578 2.528 109.186 2.992 109.554 4.064L111.938 3.52C111.442 1.232 109.378 0.367999 107.362 0.367999C104.93 0.367999 103.25 1.728 103.25 3.792C103.25 6.128 105.282 6.784 106.946 7.296C108.178 7.68 109.218 8 109.218 8.896C109.218 9.632 108.658 10.08 107.666 10.08C106.562 10.08 105.778 9.52 105.442 8.192L102.834 8.752C103.17 10.976 105.154 12.224 107.634 12.224ZM119.43 12V7.424H124.022V12H126.662V0.591999H124.022V5.136H119.43V0.591999H116.79V12H119.43Z" fill="#7FAD39"/>
</svg>
